<mxfile host="app.diagrams.net" modified="2023-11-10T17:15:10.600Z" agent="Mozilla/5.0 (Windows NT 10.0; Win64; x64) AppleWebKit/537.36 (KHTML, like Gecko) Chrome/119.0.0.0 Safari/537.36 Edg/119.0.0.0" etag="liTzwcZfiEKKKPhbK9Kb" version="22.1.0" type="device">
  <diagram name="Страница — 1" id="U_OW1hEJjHDYMSsLK7h-">
    <mxGraphModel dx="983" dy="633" grid="1" gridSize="10" guides="1" tooltips="1" connect="1" arrows="1" fold="1" page="1" pageScale="1" pageWidth="827" pageHeight="1169" math="0" shadow="0">
      <root>
        <mxCell id="0" />
        <mxCell id="1" parent="0" />
        <mxCell id="jTwC8m--l6y05RlBwPoS-1" value="&amp;lt;interface&amp;gt;&lt;br&gt;&lt;b&gt;CloneableCar&lt;/b&gt;" style="swimlane;fontStyle=0;childLayout=stackLayout;horizontal=1;startSize=30;horizontalStack=0;resizeParent=1;resizeParentMax=0;resizeLast=0;collapsible=1;marginBottom=0;whiteSpace=wrap;html=1;" vertex="1" parent="1">
          <mxGeometry x="250" y="180" width="140" height="60" as="geometry" />
        </mxCell>
        <mxCell id="jTwC8m--l6y05RlBwPoS-2" value="+clone(): Car" style="text;strokeColor=none;fillColor=none;align=left;verticalAlign=middle;spacingLeft=4;spacingRight=4;overflow=hidden;points=[[0,0.5],[1,0.5]];portConstraint=eastwest;rotatable=0;whiteSpace=wrap;html=1;" vertex="1" parent="jTwC8m--l6y05RlBwPoS-1">
          <mxGeometry y="30" width="140" height="30" as="geometry" />
        </mxCell>
        <mxCell id="jTwC8m--l6y05RlBwPoS-5" value="Car" style="swimlane;fontStyle=0;childLayout=stackLayout;horizontal=1;startSize=30;horizontalStack=0;resizeParent=1;resizeParentMax=0;resizeLast=0;collapsible=1;marginBottom=0;whiteSpace=wrap;html=1;" vertex="1" parent="1">
          <mxGeometry x="460" y="130" width="140" height="180" as="geometry" />
        </mxCell>
        <mxCell id="jTwC8m--l6y05RlBwPoS-12" style="edgeStyle=orthogonalEdgeStyle;rounded=0;orthogonalLoop=1;jettySize=auto;html=1;endArrow=open;endFill=0;" edge="1" parent="jTwC8m--l6y05RlBwPoS-5" source="jTwC8m--l6y05RlBwPoS-7">
          <mxGeometry relative="1" as="geometry">
            <mxPoint x="-70" y="75" as="targetPoint" />
          </mxGeometry>
        </mxCell>
        <mxCell id="jTwC8m--l6y05RlBwPoS-7" value="company&lt;br&gt;&lt;br&gt;model&lt;br&gt;&lt;br&gt;engineL" style="text;strokeColor=default;fillColor=none;align=left;verticalAlign=middle;spacingLeft=4;spacingRight=4;overflow=hidden;points=[[0,0.5],[1,0.5]];portConstraint=eastwest;rotatable=0;whiteSpace=wrap;html=1;" vertex="1" parent="jTwC8m--l6y05RlBwPoS-5">
          <mxGeometry y="30" width="140" height="90" as="geometry" />
        </mxCell>
        <mxCell id="jTwC8m--l6y05RlBwPoS-8" value="+clone()&lt;br&gt;&lt;br&gt;+print()" style="text;strokeColor=none;fillColor=none;align=left;verticalAlign=middle;spacingLeft=4;spacingRight=4;overflow=hidden;points=[[0,0.5],[1,0.5]];portConstraint=eastwest;rotatable=0;whiteSpace=wrap;html=1;" vertex="1" parent="jTwC8m--l6y05RlBwPoS-5">
          <mxGeometry y="120" width="140" height="60" as="geometry" />
        </mxCell>
        <mxCell id="jTwC8m--l6y05RlBwPoS-9" value="PrototypeClient" style="rounded=0;whiteSpace=wrap;html=1;" vertex="1" parent="1">
          <mxGeometry x="470" y="340" width="120" height="20" as="geometry" />
        </mxCell>
        <mxCell id="jTwC8m--l6y05RlBwPoS-10" style="edgeStyle=orthogonalEdgeStyle;rounded=0;orthogonalLoop=1;jettySize=auto;html=1;entryX=0.5;entryY=0.992;entryDx=0;entryDy=0;entryPerimeter=0;endArrow=open;endFill=0;dashed=1;" edge="1" parent="1" source="jTwC8m--l6y05RlBwPoS-9" target="jTwC8m--l6y05RlBwPoS-8">
          <mxGeometry relative="1" as="geometry" />
        </mxCell>
      </root>
    </mxGraphModel>
  </diagram>
</mxfile>
